<?xml version="1.0" encoding="UTF-8"?>
<svg version="1.1" xmlns="http://www.w3.org/2000/svg" width="284" height="289">
<path d="M0 0 C93.72 0 187.44 0 284 0 C284 95.37 284 190.74 284 289 C190.28 289 96.56 289 0 289 C0 193.63 0 98.26 0 0 Z " fill="#3D6DC8" transform="translate(0,0)"/>
<path d="M0 0 C93.72 0 187.44 0 284 0 C284 95.37 284 190.74 284 289 C190.28 289 96.56 289 0 289 C0 193.63 0 98.26 0 0 Z M32 30 C31.38769531 30.45117188 30.77539062 30.90234375 30.14453125 31.3671875 C20.44190427 38.94937282 14.6305916 49.95540977 13 62 C12.71192334 67.39494645 12.71568473 72.78256729 12.7253418 78.18310547 C12.72098728 79.80055983 12.71580168 81.41801214 12.70985413 83.03546143 C12.69653244 87.40332778 12.6958778 91.77110724 12.69841743 96.13898993 C12.69949179 99.79677077 12.69459192 103.45453436 12.689812 107.11231148 C12.67874045 115.74757641 12.67826615 124.38279783 12.68432617 133.01806641 C12.69036456 141.90106435 12.67805297 150.78390384 12.6567561 159.66687477 C12.63909445 167.317317 12.63314592 174.96770901 12.63639385 182.61817086 C12.63819957 187.17694738 12.63564192 191.73561085 12.62167931 196.29436874 C12.609031 200.58399618 12.61111068 204.87337801 12.62409019 209.16300201 C12.62644036 210.72860169 12.62377791 212.29421905 12.61546707 213.85979843 C12.53325526 230.56352472 15.36632738 244.20958525 27 256.75 C35.94328523 265.3017871 47.815168 271.22853248 60.30223083 271.27415466 C61.01547911 271.27939134 61.72872739 271.28462802 62.46358925 271.29002339 C64.84223876 271.30496758 67.22067209 271.30572731 69.59936523 271.30639648 C71.30988424 271.31402211 73.02039983 271.32245031 74.73091125 271.33161926 C79.37191763 271.35354053 84.0128581 271.36236082 88.6539104 271.36744571 C91.55902109 271.37109429 94.46411467 271.37733718 97.36921883 271.3844471 C107.52081175 271.40894038 117.67235365 271.42199172 127.82397461 271.42553711 C137.25790588 271.42916481 146.6915103 271.45900547 156.12534183 271.50094169 C164.24453724 271.53575681 172.36362501 271.55108754 180.48289448 271.55178314 C185.32305251 271.55257261 190.16287798 271.56115716 195.0029583 271.58978081 C199.56432304 271.61615199 204.12508417 271.61806164 208.68649101 271.60212517 C210.34920581 271.60032528 212.01195683 271.60686737 213.67459488 271.62294388 C230.98695709 271.77996493 244.96410849 267.77062658 257.8125 255.5 C267.5749741 245.18752735 271.11429938 234.85967457 271.13371277 220.71386719 C271.13597833 220.02663952 271.13824388 219.33941185 271.14057809 218.6313591 C271.14685412 216.35318012 271.1460929 214.07506161 271.14526367 211.796875 C271.14825907 210.15352299 271.15166248 208.51017168 271.15544128 206.86682129 C271.16424445 202.4206149 271.16661778 197.97442777 271.16725707 193.5282135 C271.1679694 190.74744468 271.17010715 187.9666807 271.17275429 185.18591309 C271.18199391 175.47680349 271.18609071 165.7677076 271.18530273 156.05859375 C271.18470158 147.01995267 271.19526439 137.9813712 271.2110464 128.94274521 C271.22413252 121.17012121 271.22948621 113.39751667 271.22884732 105.62488174 C271.22859275 100.9879776 271.23142179 96.35112653 271.24202538 91.7142334 C271.25172498 87.35410793 271.25177279 82.99408609 271.24450874 78.63395691 C271.24346538 77.03765206 271.24581101 75.44134069 271.2518692 73.845047 C271.30843362 57.90349594 268.74129462 46.18258595 257.44140625 34.32421875 C246.99561465 24.37982515 234.32792355 19.90211274 219.96315002 19.85282898 C218.91800221 19.84731395 218.91800221 19.84731395 217.8517403 19.8416875 C215.52297881 19.83069747 213.19426201 19.82681474 210.86547852 19.82299805 C209.1928951 19.81672964 207.52031307 19.8100825 205.84773254 19.80308533 C200.35813357 19.78207953 194.86853445 19.77168309 189.37890625 19.76171875 C187.48442 19.75766926 185.58993388 19.75355228 183.69544792 19.74936867 C174.7893868 19.73032108 165.88333392 19.71609168 156.97725636 19.7077567 C146.72224695 19.69799921 136.46745425 19.67171681 126.21252114 19.63125581 C118.27086416 19.60100583 110.32926897 19.58627925 102.38755554 19.58297569 C97.65197017 19.58063446 92.91661639 19.57179619 88.18109322 19.54651451 C83.71831324 19.52307418 79.25591471 19.51906402 74.79308891 19.52927589 C73.16543171 19.52976758 71.53775471 19.52355693 69.91015625 19.50971985 C55.9360403 19.3976779 43.31555237 20.97476985 32 30 Z " fill="#FCFDFE" transform="translate(0,0)"/>
<path d="M0 0 C8.0915849 6.66442834 12.17421068 13.68743827 14 24 C14.2748042 28.68131358 14.34268721 33.32100153 14 38 C12.11570108 39.88429892 9.37705606 39.13322941 6.86897278 39.14663696 C5.98738998 39.14618378 5.10580719 39.14573059 4.19750977 39.14526367 C2.8122258 39.15030159 2.8122258 39.15030159 1.3989563 39.15544128 C-1.67024053 39.16498199 -4.73938299 39.16689594 -7.80859375 39.16796875 C-9.93229699 39.17117912 -12.056 39.17454302 -14.17970276 39.17805481 C-18.63779208 39.18405387 -23.095862 39.18589391 -27.55395508 39.18530273 C-33.27874238 39.18520106 -39.0034058 39.1988555 -44.72816372 39.21607494 C-49.11607947 39.2271696 -53.50396504 39.22922273 -57.89189339 39.22869301 C-60.00309743 39.22987688 -62.11430216 39.23432123 -64.22549248 39.24202538 C-67.17312276 39.25177444 -70.12048099 39.24896745 -73.06811523 39.24291992 C-73.9476738 39.24853943 -74.82723236 39.25415894 -75.73344421 39.25994873 C-81.77168478 39.22831522 -81.77168478 39.22831522 -84 37 C-85.36844808 25.86515407 -83.62792447 14.85016384 -76.8125 5.625 C-55.87967284 -13.91230534 -23.88955386 -15.30752938 0 0 Z " fill="#F2934B" transform="translate(131,129)"/>
<path d="M0 0 C0.92353271 0.00563965 1.84706543 0.0112793 2.79858398 0.01708984 C16.13695395 0.25374779 29.11654753 3.76759573 39.125 13.0625 C45.48775518 19.94222904 48.82620783 27.95021253 48.875 37.25 C48.88917969 38.47589844 48.90335937 39.70179688 48.91796875 40.96484375 C48.69802591 44.15960673 48.1848883 45.59183041 46.6875 48.3125 C38.54851776 48.44545899 30.40950086 48.5759639 22.27043438 48.70365143 C18.4878063 48.76306456 14.70519328 48.82320669 10.92260742 48.88525391 C-4.33616606 49.13494559 -19.59449415 49.36036648 -34.85546875 49.40625 C-35.99268875 49.4127356 -37.12990875 49.41922119 -38.30158997 49.42590332 C-39.33410385 49.42650757 -40.36661774 49.42711182 -41.43041992 49.42773438 C-42.78027229 49.43081604 -42.78027229 49.43081604 -44.15739441 49.43395996 C-46.3125 49.3125 -46.3125 49.3125 -48.3125 48.3125 C-50.57456304 40.01826885 -50.08776697 31.04823572 -46.3125 23.3125 C-39.68844366 12.2724061 -29.56312671 5.30902467 -17.26049805 1.71264648 C-11.49259857 0.28323542 -5.92669475 -0.03802297 0 0 Z " fill="#2DB2C5" transform="translate(194.3125,181.6875)"/>
<path d="M0 0 C7.2837605 3.92308004 12.06066157 8.56836997 15 16.375 C17.14157451 23.54711868 16.69962744 30.53111187 13.3203125 37.20703125 C9.64359003 43.24425305 5.44574035 48.16685963 -1.27734375 50.75 C-9.18881032 52.56611858 -18.33245187 52.95676299 -25.43359375 48.5703125 C-30.84108884 44.4438948 -35.82461944 38.90114168 -38 32.375 C-38.78831341 23.58380869 -39.16664999 15.91111397 -33.8515625 8.4296875 C-30.92248889 5.17928092 -27.74870541 2.62118786 -24 0.375 C-23.40832031 0.00117187 -22.81664063 -0.37265625 -22.20703125 -0.7578125 C-15.83539665 -3.26135742 -6.26758277 -2.59796177 0 0 Z " fill="#F4934B" transform="translate(107,58.625)"/>
<path d="M0 0 C5.65159065 3.69663791 10.04812061 8.4620677 12 15 C12.40148584 18.02418843 12.52303802 21.01367397 12.5625 24.0625 C12.57724365 24.81821289 12.5919873 25.57392578 12.60717773 26.35253906 C12.48615797 33.01659752 10.45162093 38.14398799 6.10546875 43.20703125 C-1.64315521 49.69315029 -7.22967604 51.7015261 -17.4140625 51.484375 C-24.23620307 50.56286582 -29.55355933 47.38371142 -34.4375 42.625 C-34.953125 41.75875 -35.46875 40.8925 -36 40 C-36.36738281 39.49597656 -36.73476562 38.99195313 -37.11328125 38.47265625 C-41.40630267 31.73069477 -40.86837656 23.64780757 -40 16 C-37.52195544 7.44745684 -32.29788119 2.57872871 -24.875 -1.875 C-17.20649159 -4.78314766 -7.08883424 -4.13124115 0 0 Z " fill="#2EB2C4" transform="translate(209,122)"/>
<path d="M0 0 C2.22434601 0.6110696 4.44698076 1.22839833 6.66796875 1.8515625 C7.79912109 2.15578125 8.93027344 2.46 10.09570312 2.7734375 C11.71895508 3.22589844 11.71895508 3.22589844 13.375 3.6875 C14.35573486 3.95868652 15.33646973 4.22987305 16.34692383 4.50927734 C18.927592 5.50437294 20.18756724 6.29480392 21.85546875 8.4765625 C22.41796875 11.2265625 22.41796875 11.2265625 21.85546875 14.4765625 C20.07959532 17.03999719 18.05135453 19.26760597 15.85546875 21.4765625 C20.31920675 31.99483875 32.01040168 37.13384662 41.85546875 41.4765625 C42.59796875 41.81558594 43.34046875 42.15460938 44.10546875 42.50390625 C51.92145148 45.77684902 60.41299665 46.44217431 68.79296875 46.7265625 C74.26292276 47.08073218 74.26292276 47.08073218 76.78515625 48.765625 C79.03426152 51.34510731 79.85546875 53.04354515 79.85546875 56.4765625 C61.02170388 62.24200073 42.80224042 59.92644712 25.37109375 51.23828125 C17.34816181 46.79420621 10.66971915 40.54458375 3.85546875 34.4765625 C3.3965625 34.88648438 2.93765625 35.29640625 2.46484375 35.71875 C1.85125 36.25757813 1.23765625 36.79640625 0.60546875 37.3515625 C0.0021875 37.88523438 -0.60109375 38.41890625 -1.22265625 38.96875 C-4.15170538 41.26674383 -6.45098926 42.37542096 -10.14453125 42.9140625 C-13.14453125 42.4765625 -13.14453125 42.4765625 -15.30102539 40.47900391 C-17.66457502 36.62958882 -17.70420476 33.38116121 -17.640625 29 C-17.64208023 28.1929361 -17.64353546 27.38587219 -17.64503479 26.55435181 C-17.64338007 24.85488256 -17.63186662 23.15539766 -17.61108398 21.45605469 C-17.58204585 18.85287092 -17.59049924 16.25171471 -17.60351562 13.6484375 C-17.59728021 11.99478176 -17.58889081 10.34113245 -17.578125 8.6875 C-17.58106064 7.90933929 -17.58399628 7.13117859 -17.58702087 6.32943726 C-17.49393063 1.01298263 -17.49393063 1.01298263 -15.82910156 -1.54296875 C-11.47396758 -4.07778296 -4.55366009 -1.16846015 0 0 Z " fill="#2FB1C3" transform="translate(74.14453125,185.5234375)"/>
<path d="M0 0 C0.95310059 0.01208496 1.90620117 0.02416992 2.88818359 0.03662109 C25.57406938 0.66246479 42.91532711 10.35072973 59.4375 25.5 C59.72238281 24.89671875 60.00726563 24.2934375 60.30078125 23.671875 C61.92476587 20.56900403 63.7008811 18.68929512 66.4375 16.5 C70.3140952 15.88790602 72.38142589 15.73696267 75.60546875 18.06640625 C78.03309018 21.2911571 78.10983356 24.10635249 78.1875 28 C78.21497314 28.73033447 78.24244629 29.46066895 78.27075195 30.21313477 C78.35119844 32.64210796 78.39689969 35.07004823 78.4375 37.5 C78.45796387 38.39702637 78.47842773 39.29405273 78.49951172 40.21826172 C78.55778477 42.95805849 78.59620746 45.69724447 78.625 48.4375 C78.64481934 49.74267578 78.64481934 49.74267578 78.66503906 51.07421875 C78.6675987 53.21748676 78.56163043 55.36032808 78.4375 57.5 C76.4375 59.5 76.4375 59.5 72.80078125 59.734375 C68.60694763 59.62468285 64.66714707 58.83479506 60.625 57.75 C59.93720459 57.57170654 59.24940918 57.39341309 58.54077148 57.2097168 C43.0184096 53.0809096 43.0184096 53.0809096 40.4375 50.5 C40.05249398 47.22744879 39.78032744 44.62798275 41.484375 41.703125 C42.8125 40.0625 42.8125 40.0625 45.4375 37.5 C46.0975 37.5 46.7575 37.5 47.4375 37.5 C41.64964748 26.91335836 30.31806376 21.60437149 19.4375 17.5 C7.6518208 14.27006356 -4.54623666 15.30689584 -16.5625 16.5 C-17.23604499 15.06570999 -17.90109701 13.62742943 -18.5625 12.1875 C-18.93375 11.38699219 -19.305 10.58648437 -19.6875 9.76171875 C-20.5625 7.5 -20.5625 7.5 -20.5625 4.5 C-13.57030451 1.1989393 -7.7159842 -0.15904968 0 0 Z " fill="#F1944B" transform="translate(148.5625,46.5)"/>
<path d="M0 0 C1.6960346 0.00084749 3.39207029 0.00036875 5.08810425 -0.00132751 C9.66597631 -0.00218413 14.24360995 0.01538721 18.82142687 0.03639436 C23.61534429 0.05521715 28.40926788 0.056916 33.20321655 0.06047058 C42.26942355 0.06977464 51.33552133 0.09436613 60.40168035 0.12451905 C70.72818161 0.15811422 81.05468824 0.17456191 91.38123059 0.18960536 C112.61277576 0.22091721 133.84422278 0.27364568 155.07568359 0.34057617 C155.40568359 1.00057617 155.73568359 1.66057617 156.07568359 2.34057617 C155.18354314 2.34388632 154.29140268 2.34719646 153.37222767 2.35060692 C131.67289441 2.43179755 109.97363125 2.5238771 88.27439594 2.62810326 C77.78084587 2.67824298 67.28730367 2.72468577 56.79370117 2.76245117 C47.64837825 2.7953736 38.50311612 2.83520626 29.35786027 2.88336623 C24.51471763 2.90862867 19.67161532 2.93041076 14.82842445 2.94392014 C10.27056921 2.95674273 5.71285226 2.9787994 1.15507317 3.00795937 C-0.51825847 3.01703356 -2.19161238 3.02272501 -3.86496735 3.02478981 C-6.14924576 3.02811346 -8.43313237 3.04359347 -10.71733093 3.06210327 C-12.63512124 3.07039941 -12.63512124 3.07039941 -14.59165478 3.07886314 C-17.83330261 3.33342888 -19.98920729 4.01730571 -22.92431641 5.34057617 C-24.50212891 5.58807617 -24.50212891 5.58807617 -26.11181641 5.84057617 C-29.05179024 6.08643429 -29.05179024 6.08643429 -30.92431641 8.34057617 C-32.06900391 8.74276367 -32.06900391 8.74276367 -33.23681641 9.15307617 C-36.59810439 10.63829644 -38.43465189 12.659399 -40.92431641 15.34057617 C-41.56369141 15.91807617 -42.20306641 16.49557617 -42.86181641 17.09057617 C-45.47502948 19.94135407 -47.47291401 23.06662736 -49.55712891 26.31713867 C-50.92431641 28.34057617 -50.92431641 28.34057617 -52.92431641 30.34057617 C-54.61596904 36.26136039 -55.76014637 42.29679981 -56.92431641 48.34057617 C-59.67976396 43.92559771 -58.75263853 40.4861824 -57.80712891 35.56713867 C-54.5655059 23.71943689 -46.41033489 13.95126253 -36.07275391 7.54760742 C-33.08656685 5.86991324 -30.14066342 4.52554613 -26.92431641 3.34057617 C-25.96381598 2.9582132 -25.96381598 2.9582132 -24.98391151 2.56812572 C-16.7747975 -0.3409574 -8.57904825 -0.06031675 0 0 Z " fill="#6477B7" transform="translate(71.92431640625,19.659423828125)"/>
<path d="M0 0 C0.85916016 0.03544922 1.71832031 0.07089844 2.60351562 0.10742188 C3.43431641 0.15060547 4.26511719 0.19378906 5.12109375 0.23828125 C6.25502563 0.29495972 6.25502563 0.29495972 7.41186523 0.3527832 C9.5625 0.6875 9.5625 0.6875 11.59008789 1.71557617 C13.79402785 2.98217323 13.79402785 2.98217323 17.5625 2.6875 C17.5625 3.6775 17.5625 4.6675 17.5625 5.6875 C19.39534443 6.81266085 19.39534443 6.81266085 21.5625 7.6875 C22.5525 7.3575 23.5425 7.0275 24.5625 6.6875 C25.89582095 9.3541419 25.23352033 10.85430303 24.5625 13.6875 C25.8825 13.3575 27.2025 13.0275 28.5625 12.6875 C27.89583333 15.35416667 27.22916667 18.02083333 26.5625 20.6875 C26.046875 19.49125 25.53125 18.295 25 17.0625 C21.98495271 11.08530098 17.89183276 7.93535684 12.0625 4.8125 C4.97457555 2.53719351 -3.38163728 2.28416087 -10.41796875 4.71875 C-17.25561408 8.44273233 -21.01636534 13.84523067 -24.4375 20.6875 C-25.04935712 29.45410864 -25.58018324 37.19387584 -20.4375 44.6875 C-19.89738281 45.20699219 -19.35726562 45.72648437 -18.80078125 46.26171875 C-17.4375 47.6875 -17.4375 47.6875 -17.4375 49.6875 C-16.11491528 50.37524405 -14.77763497 51.03461373 -13.4375 51.6875 C-12.509375 52.203125 -11.58125 52.71875 -10.625 53.25 C-4.75155414 55.81154687 2.24005241 55.45152705 8.5625 55.6875 C8.5625 56.3475 8.5625 57.0075 8.5625 57.6875 C1.9625 57.6875 -4.6375 57.6875 -11.4375 57.6875 C-11.4375 56.6975 -11.4375 55.7075 -11.4375 54.6875 C-12.7575 54.6875 -14.0775 54.6875 -15.4375 54.6875 C-15.9325 53.2025 -15.9325 53.2025 -16.4375 51.6875 C-17.4275 51.3575 -18.4175 51.0275 -19.4375 50.6875 C-19.9325 49.2025 -19.9325 49.2025 -20.4375 47.6875 C-20.953125 47.171875 -21.46875 46.65625 -22 46.125 C-22.474375 45.650625 -22.94875 45.17625 -23.4375 44.6875 C-23.4375 44.0275 -23.4375 43.3675 -23.4375 42.6875 C-24.0975 42.6875 -24.7575 42.6875 -25.4375 42.6875 C-25.56125 42.06875 -25.685 41.45 -25.8125 40.8125 C-26.30947356 38.49629168 -26.30947356 38.49629168 -28.4375 36.6875 C-29.26444589 29.10537276 -28.67987635 22.57754975 -25.4375 15.6875 C-24.7775 15.6875 -24.1175 15.6875 -23.4375 15.6875 C-23.251875 14.016875 -23.251875 14.016875 -23.0625 12.3125 C-22.4375 8.6875 -22.4375 8.6875 -20.4375 6.6875 C-19.4475 6.6875 -18.4575 6.6875 -17.4375 6.6875 C-17.4375 6.0275 -17.4375 5.3675 -17.4375 4.6875 C-15.7875 4.6875 -14.1375 4.6875 -12.4375 4.6875 C-12.4375 3.3675 -12.4375 2.0475 -12.4375 0.6875 C-8.22362656 -0.71712448 -4.39611561 -0.23966874 0 0 Z " fill="#5E59A9" transform="translate(94.4375,54.3125)"/>
<path d="M0 0 C0.66 0.33 1.32 0.66 2 1 C1.525625 1.9075 1.05125 2.815 0.5625 3.75 C-3.37574995 11.94155989 -2 16.49115442 -2 27 C18.13 27 38.26 27 59 27 C59 27.33 59 27.66 59 28 C51.97206269 28.72950427 44.97065625 29.10335798 37.91015625 29.24609375 C37.11153168 29.26274078 36.3129071 29.27938782 35.49008179 29.29653931 C32.16884911 29.36310527 28.84762628 29.42533277 25.52612305 29.47680664 C23.07056023 29.51653143 20.6154611 29.56798745 18.16015625 29.62109375 C17.04133812 29.63371498 17.04133812 29.63371498 15.8999176 29.64659119 C11.84602585 29.74274184 8.65423777 30.20717742 5 32 C6.32 33.98 7.64 35.96 9 38 C8.01 38.33 7.02 38.66 6 39 C4.99088542 37.20963542 3.98177083 35.41927083 2.97265625 33.62890625 C2.1027487 32.02121854 2.1027487 32.02121854 1 31 C-2.831283 30.54769576 -6.66187125 30.18253495 -10.50390625 29.83789062 C-24.1414386 28.52535817 -37.17660654 24.76179471 -48 16 C-43.94035147 16 -41.7415008 17.80938095 -38.3515625 19.90625 C-35.69394374 21.14235175 -33.8920657 21.08838231 -31 21 C-29.97803008 21.97753644 -28.98020375 22.9805881 -28 24 C-20.5090031 27.06449873 -12.96288544 27.14419712 -5 27 C-4.96261719 25.87722656 -4.92523438 24.75445312 -4.88671875 23.59765625 C-4.08531919 4.08531919 -4.08531919 4.08531919 0 0 Z " fill="#2278C0" transform="translate(148,203)"/>
<path d="M0 0 C30.69 0 61.38 0 93 0 C93 0.66 93 1.32 93 2 C69.65471124 2.2062585 46.33544049 1.6087647 23 1 C23 1.66 23 2.32 23 3 C15.28410183 3.1567564 7.68483539 2.67453101 0 2 C0 1.34 0 0.68 0 0 Z " fill="#525EA6" transform="translate(50,168)"/>
<path d="M0 0 C4.94246987 0.43610028 7.34433095 2.81101211 11 6 C11.763125 6.33 12.52625 6.66 13.3125 7 C15 8 15 8 15.625 10.25 C15.74875 11.1575 15.8725 12.065 16 13 C16.33515625 13.85335937 16.6703125 14.70671875 17.015625 15.5859375 C18.27121508 19.94064278 18.21833198 23.87352658 18.125 28.375 C18.11597656 29.20644531 18.10695312 30.03789062 18.09765625 30.89453125 C18.0742622 32.92981337 18.03839725 34.96494564 18 37 C16.515 37.495 16.515 37.495 15 38 C14.9071875 39.5778125 14.9071875 39.5778125 14.8125 41.1875 C13.80861764 45.89802493 12.86139685 47.14256633 9 50 C5.39526549 51.54488622 1.72327851 52.77689402 -2 54 C-2.99 54.495 -2.99 54.495 -4 55 C-6.65756465 55.43225449 -9.32332885 55.69779519 -12 56 C-12 55.01 -12 54.02 -12 53 C-10.72125 52.938125 -9.4425 52.87625 -8.125 52.8125 C0.0842974 51.868754 6.65450422 48.23979712 11.84375 41.84375 C16.44740353 34.50278897 16.08662742 25.3729721 15 17 C12.67490939 9.77719 8.1883532 5.80443677 1.7578125 2.05859375 C1.17773438 1.70925781 0.59765625 1.35992187 0 1 C0 0.67 0 0.34 0 0 Z " fill="#2779C6" transform="translate(205,120)"/>
<path d="M0 0 C-1 2 -1 2 -3.6875 3.0625 C-7 4 -7 4 -10.25 4.5 C-13.1343968 4.75492348 -13.1343968 4.75492348 -15 7 C-15.763125 7.268125 -16.52625 7.53625 -17.3125 7.8125 C-20.67378798 9.29772027 -22.51033548 11.31882283 -25 14 C-25.639375 14.5775 -26.27875 15.155 -26.9375 15.75 C-29.55071307 18.6007779 -31.5485976 21.72605119 -33.6328125 24.9765625 C-35 27 -35 27 -37 29 C-38.69165263 34.92078422 -39.83582996 40.95622364 -41 47 C-43.75544755 42.58502154 -42.82832212 39.14560622 -41.8828125 34.2265625 C-38.64036545 22.37584894 -30.48906813 12.63302004 -20.1640625 6.2109375 C-17.16150834 4.53080792 -14.22339633 3.21637597 -11 2 C-9.453125 1.4121875 -9.453125 1.4121875 -7.875 0.8125 C-5.08693523 0.02456865 -2.8773807 -0.16925769 0 0 Z " fill="#6F63BA" transform="translate(56,21)"/>
<path d="M0 0 C5.76452212 0.4866155 9.85164541 2.13295915 14.875 4.9375 C15.55046875 5.29779297 16.2259375 5.65808594 16.921875 6.02929688 C21.86100867 8.72201734 21.86100867 8.72201734 23 11 C22.34 11 21.68 11 21 11 C20.67 11.99 20.34 12.98 20 14 C17.9375 15.1875 17.9375 15.1875 16 16 C16 14.68 16 13.36 16 12 C15.01 12 14.02 12 13 12 C12.67 13.32 12.34 14.64 12 16 C11.67 15.01 11.34 14.02 11 13 C10.01 12.67 9.02 12.34 8 12 C8 11.34 8 10.68 8 10 C8.66 9.67 9.32 9.34 10 9 C10 7.68 10 6.36 10 5 C9.34 5 8.68 5 8 5 C8 4.34 8 3.68 8 3 C5.36 2.67 2.72 2.34 0 2 C0 1.34 0 0.68 0 0 Z " fill="#4662B8" transform="translate(164,63)"/>
<path d="M0 0 C2.97 0 5.94 0 9 0 C4 5 4 5 1.4375 7.4375 C-7.68294749 17.02566274 -8.5161193 27.33567416 -9 40 C-9.33 40 -9.66 40 -10 40 C-10.02716824 37.45826023 -10.04691969 34.91681585 -10.0625 32.375 C-10.07087891 31.66214844 -10.07925781 30.94929688 -10.08789062 30.21484375 C-10.10710296 26.02655562 -9.8267327 22.1271538 -9 18 C-8.34 18 -7.68 18 -7 18 C-6.89042969 17.30132812 -6.78085937 16.60265625 -6.66796875 15.8828125 C-6.50941406 14.97273437 -6.35085937 14.06265625 -6.1875 13.125 C-6.03667969 12.22007812 -5.88585938 11.31515625 -5.73046875 10.3828125 C-5 8 -5 8 -2 6 C-1.33820153 4.01954441 -1.33820153 4.01954441 -1 2 C-0.67 1.34 -0.34 0.68 0 0 Z " fill="#5557A6" transform="translate(56,126)"/>
<path d="M0 0 C0.99 0 1.98 0 3 0 C3 0.66 3 1.32 3 2 C4.134375 1.814375 5.26875 1.62875 6.4375 1.4375 C8.2009375 1.2209375 8.2009375 1.2209375 10 1 C10.33 1.33 10.66 1.66 11 2 C13.39418494 2.59633213 15.77220626 3.13049436 18.1875 3.625 C19.1784668 3.84542969 19.1784668 3.84542969 20.18945312 4.0703125 C24.42683697 4.9403775 27.79081864 4.98192411 32 4 C32.1546875 4.9590625 32.1546875 4.9590625 32.3125 5.9375 C32.6528125 6.9584375 32.6528125 6.9584375 33 8 C33.99 8.33 34.98 8.66 36 9 C32.92596829 10.53701586 30.94541177 9.1828418 27.75 8.125 C21.47544354 6.05757702 15.7835417 4.86675515 9.1640625 4.90234375 C7.56884766 4.90717773 7.56884766 4.90717773 5.94140625 4.91210938 C4.29978516 4.92467773 4.29978516 4.92467773 2.625 4.9375 C1.50738281 4.94201172 0.38976562 4.94652344 -0.76171875 4.95117188 C-3.50786804 4.96290756 -6.25390586 4.97932637 -9 5 C-9 4.34 -9 3.68 -9 3 C-6.03 3 -3.06 3 0 3 C0 2.01 0 1.02 0 0 Z " fill="#545E9C" transform="translate(145,43)"/>
<path d="M0 0 C0.70125 0.309375 1.4025 0.61875 2.125 0.9375 C5.08936657 2.03302678 7.87698108 2.56422992 11 3 C11 3.99 11 4.98 11 6 C12.65 6.33 14.3 6.66 16 7 C16.33 6.34 16.66 5.68 17 5 C17 5.66 17 6.32 17 7 C17.66 7 18.32 7 19 7 C19.12375 8.134375 19.2475 9.26875 19.375 10.4375 C19.58125 11.613125 19.7875 12.78875 20 14 C20.66 14.33 21.32 14.66 22 15 C22 15.66 22 16.32 22 17 C18.44179214 15.47388791 16.04841927 13.33886858 13.25 10.6875 C9.06337131 6.83008692 4.88403578 3.89424343 0 1 C0 0.67 0 0.34 0 0 Z " fill="#4C5FA4" transform="translate(186,55)"/>
<path d="M0 0 C3.03233611 1.13712604 5.59460419 2.36336923 8.375 4.0625 C14.3624722 7.17182436 21.39265778 6.8279338 28 7 C28 7.66 28 8.32 28 9 C21.4 9 14.8 9 8 9 C8 8.01 8 7.02 8 6 C6.68 6 5.36 6 4 6 C3.67 5.01 3.34 4.02 3 3 C2.01 2.67 1.02 2.34 0 2 C0 1.34 0 0.68 0 0 Z " fill="#5456A4" transform="translate(75,103)"/>
<path d="M0 0 C0 0.66 0 1.32 0 2 C0.66 2 1.32 2 2 2 C2.33 2.66 2.66 3.32 3 4 C4.32 3.67 5.64 3.34 7 3 C7 3.66 7 4.32 7 5 C7.66 5 8.32 5 9 5 C11 10.625 11 10.625 11 14 C10.45472656 13.46890625 9.90945312 12.9378125 9.34765625 12.390625 C4.24933992 7.61476629 -0.41717325 4.3654602 -7 2 C-4.35261084 0.5393715 -3.10551666 0 0 0 Z " fill="#525EAC" transform="translate(126,122)"/>
<path d="M0 0 C0.66 0 1.32 0 2 0 C4.5393228 3.41831915 5.3636198 5.75776898 5 10 C5.66 10 6.32 10 7 10 C7 11.65 7 13.3 7 15 C7.66 15 8.32 15 9 15 C10.49697302 20.68849748 9.3348044 25.41809068 8 31 C7.67 31 7.34 31 7 31 C6.96132812 29.71029297 6.96132812 29.71029297 6.921875 28.39453125 C6.44113085 18.37538614 4.76658893 8.93468239 0 0 Z " fill="#4B5C9D" transform="translate(138,136)"/>
<path d="M0 0 C4.94246987 0.43610028 7.34433095 2.81101211 11 6 C11.763125 6.33 12.52625 6.66 13.3125 7 C15 8 15 8 15.625 10.25 C15.74875 11.1575 15.8725 12.065 16 13 C16.350625 13.886875 16.70125 14.77375 17.0625 15.6875 C18.32882231 20.16183881 18.16428673 24.38171743 18 29 C17.67 29 17.34 29 17 29 C16.92523438 28.24976563 16.85046875 27.49953125 16.7734375 26.7265625 C15.67189064 18.15177613 13.5885354 10.67531955 6.60546875 5.08203125 C5.01821836 4.02969674 3.403391 3.0171568 1.7578125 2.05859375 C1.17773438 1.70925781 0.59765625 1.35992187 0 1 C0 0.67 0 0.34 0 0 Z " fill="#2274BE" transform="translate(205,120)"/>
<path d="M0 0 C0.66 0.33 1.32 0.66 2 1 C1.01 2.485 1.01 2.485 0 4 C-0.66 4 -1.32 4 -2 4 C-1.484375 5.0725 -0.96875 6.145 -0.4375 7.25 C0.63240282 9.71477612 1.03572782 10.72132303 0.6875 13.4375 C0.460625 13.953125 0.23375 14.46875 0 15 C-2.475 14.01 -2.475 14.01 -5 13 C-5.602537 6.97463002 -5.602537 6.97463002 -3.88671875 4.19921875 C-2.65378147 2.74400545 -1.33191067 1.36520843 0 0 Z " fill="#E19657" transform="translate(194,84)"/>
<path d="M0 0 C1.43085938 0.01450195 1.43085938 0.01450195 2.890625 0.02929688 C7.6041168 0.10458181 12.11716206 0.35639418 16.75 1.3125 C16.75 1.6425 16.75 1.9725 16.75 2.3125 C16.00951416 2.29678955 15.26902832 2.2810791 14.50610352 2.26489258 C11.10831527 2.20202461 7.71064996 2.16334559 4.3125 2.125 C3.14783203 2.09986328 1.98316406 2.07472656 0.78320312 2.04882812 C-5.83391847 1.99290879 -12.32387269 2.00172334 -18.25 5.3125 C-18.91 6.3025 -19.57 7.2925 -20.25 8.3125 C-20.58 6.9925 -20.91 5.6725 -21.25 4.3125 C-13.99317689 0.81360395 -8.01230565 -0.24763307 0 0 Z " fill="#D19A72" transform="translate(149.25,46.6875)"/>
<path d="M0 0 C-2.85189368 1.53362704 -5.56063863 2.49176183 -8.6875 3.3125 C-13.93478092 4.82838115 -18.3367103 7.20604625 -23 10 C-23.99 10.495 -23.99 10.495 -25 11 C-25 9.35 -25 7.7 -25 6 C-22 5 -22 5 -19 6 C-18.67 5.01 -18.34 4.02 -18 3 C-16.700625 2.814375 -16.700625 2.814375 -15.375 2.625 C-12.01767826 2.09439581 -12.01767826 2.09439581 -9 0.9375 C-5.83580317 -0.05131151 -3.29357527 -0.15683692 0 0 Z " fill="#2474C0" transform="translate(184,182)"/>
<path d="M0 0 C1.65 0 3.3 0 5 0 C3.02 0.99 3.02 0.99 1 2 C1.99 4.97 2.98 7.94 4 11 C2.35 10.67 0.7 10.34 -1 10 C-1 8.68 -1 7.36 -1 6 C-1.99 6.33 -2.98 6.66 -4 7 C-4 5.68 -4 4.36 -4 3 C-3.01 3 -2.02 3 -1 3 C-0.67 2.01 -0.34 1.02 0 0 Z " fill="#5C62AC" transform="translate(127,49)"/>
<path d="M0 0 C0.33 0.66 0.66 1.32 1 2 C-5.15384615 11.23076923 -5.15384615 11.23076923 -10 14 C-11.34631825 14.98244845 -12.68441297 15.97676564 -14 17 C-14.66 16.34 -15.32 15.68 -16 15 C-15.43152344 14.5875 -14.86304688 14.175 -14.27734375 13.75 C-8.80205672 9.65496062 -4.29431688 5.31611576 0 0 Z " fill="#DDF1F7" transform="translate(262,249)"/>
<path d="M0 0 C0.81235107 0.00862061 1.62470215 0.01724121 2.46166992 0.02612305 C18.08096551 0.25966796 18.08096551 0.25966796 23.375 4.1875 C20.51093529 5.61953235 19.05598 4.63379884 16 3.75 C6.86320745 1.48892648 -2.27314317 1.9357551 -11.625 2.1875 C-7.7402534 -0.40233106 -4.49798356 -0.07406519 0 0 Z " fill="#474D98" transform="translate(95.625,117.8125)"/>
<path d="M0 0 C0.66 0.33 1.32 0.66 2 1 C2 1.66 2 2.32 2 3 C2.66 3.33 3.32 3.66 4 4 C1.69 6.64 -0.62 9.28 -3 12 C-3.66 11.01 -4.32 10.02 -5 9 C-3.50163895 5.88801935 -1.80066242 2.9465385 0 0 Z " fill="#EA9654" transform="translate(115,94)"/>
<path d="M0 0 C0.66 0.66 1.32 1.32 2 2 C-7.15271221 10.63114221 -7.15271221 10.63114221 -11.40625 11.48046875 C-14.42947856 11.14768799 -16.60819257 10.30609955 -19 8.4375 C-19.33 7.963125 -19.66 7.48875 -20 7 C-19.67 6.01 -19.34 5.02 -19 4 C-18.62875 4.66 -18.2575 5.32 -17.875 6 C-16.12423289 8.26735791 -16.12423289 8.26735791 -13.1875 8.5 C-7.50687237 7.60892116 -3.81618319 4.10973574 0 0 Z " fill="#246FB8" transform="translate(77,219)"/>
<path d="M0 0 C1.35303489 2.70606979 0.7884698 4.1328371 0 7 C-2 9 -2 9 -5 10 C-5.33 10.66 -5.66 11.32 -6 12 C-7.65 11.67 -9.3 11.34 -11 11 C-10.29875 10.484375 -9.5975 9.96875 -8.875 9.4375 C-5.50532643 6.58060284 -2.78843396 3.41128003 0 0 Z " fill="#555AA9" transform="translate(119,97)"/>
<path d="M0 0 C1.32 0.66 2.64 1.32 4 2 C3.34 3.98 2.68 5.96 2 8 C1.46375 7.525625 0.9275 7.05125 0.375 6.5625 C-2.42842836 4.71813924 -4.69620258 4.37543153 -8 4 C-8 3.34 -8 2.68 -8 2 C-6.0085944 1.61866701 -4.00720923 1.28674418 -2 1 C-1.67 1.33 -1.34 1.66 -1 2 C-0.67 1.34 -0.34 0.68 0 0 Z " fill="#3B66BF" transform="translate(224,59)"/>
<path d="M0 0 C2.97 0 5.94 0 9 0 C7.515 1.485 7.515 1.485 6 3 C5.34 3 4.68 3 4 3 C5.98 5.97 5.98 5.97 8 9 C7.01 9.33 6.02 9.66 5 10 C1.125 3.375 1.125 3.375 0 0 Z " fill="#2777C8" transform="translate(149,232)"/>
<path d="M0 0 C0 0.33 0 0.66 0 1 C-1.17755859 1.29003906 -1.17755859 1.29003906 -2.37890625 1.5859375 C-7.9491275 2.96653221 -13.49622437 4.37388447 -19 6 C-18.67 5.01 -18.34 4.02 -18 3 C-15.1875 1.9375 -15.1875 1.9375 -12 1 C-11.38125 0.608125 -10.7625 0.21625 -10.125 -0.1875 C-6.67081236 -1.5082188 -3.60725817 -0.60120969 0 0 Z " fill="#5B5BA1" transform="translate(84,120)"/>
<path d="M0 0 C0.33 0.66 0.66 1.32 1 2 C1.66 2 2.32 2 3 2 C3.12375 3.134375 3.2475 4.26875 3.375 5.4375 C3.684375 7.2009375 3.684375 7.2009375 4 9 C4.66 9.33 5.32 9.66 6 10 C6 10.66 6 11.32 6 12 C1.79373966 10.49776416 0.26099979 7.71449966 -2 4 C-1.34 2.68 -0.68 1.36 0 0 Z " fill="#4764B6" transform="translate(202,60)"/>
<path d="M0 0 C0.99 0 1.98 0 3 0 C3 0.66 3 1.32 3 2 C6.465 1.505 6.465 1.505 10 1 C10.33 1.66 10.66 2.32 11 3 C4.4 3.66 -2.2 4.32 -9 5 C-9 4.34 -9 3.68 -9 3 C-6.03 3 -3.06 3 0 3 C0 2.01 0 1.02 0 0 Z " fill="#485AB2" transform="translate(145,43)"/>
<path d="M0 0 C0.66 0.66 1.32 1.32 2 2 C1.625 4.625 1.625 4.625 1 7 C2.32 6.67 3.64 6.34 5 6 C4.33333333 8.66666667 3.66666667 11.33333333 3 14 C2.16209211 12.21046815 1.32980604 10.41830305 0.5 8.625 C-0.19609375 7.12839844 -0.19609375 7.12839844 -0.90625 5.6015625 C-2 3 -2 3 -2 1 C-1.34 0.67 -0.68 0.34 0 0 Z " fill="#545AB2" transform="translate(118,61)"/>
<path d="M0 0 C0.81571335 2.35241204 1.11686468 3.62646319 0.36328125 6.03515625 C-3.14000782 12.79429018 -3.14000782 12.79429018 -7 15 C-5.63408831 11.45756548 -4.09068516 8.07372071 -2.375 4.6875 C-1.70597656 3.36298828 -1.70597656 3.36298828 -1.0234375 2.01171875 C-0.68570312 1.34785156 -0.34796875 0.68398437 0 0 Z " fill="#3980C0" transform="translate(267,236)"/>
<path d="M0 0 C3.96975938 3.96975938 4.125 9.08012382 4.125 14.4375 C4.09326375 15.95857296 4.05506505 17.47959282 4 19 C3.67 19 3.34 19 3 19 C2.87625 17.824375 2.7525 16.64875 2.625 15.4375 C2.14219837 11.48412433 1.10389833 7.82684755 0 4 C0 2.68 0 1.36 0 0 Z " fill="#D6966A" transform="translate(119,70)"/>
<path d="M0 0 C0.99 0.66 1.98 1.32 3 2 C3 2.99 3 3.98 3 5 C0.5 6.6875 0.5 6.6875 -2 8 C-2.66 6.35 -3.32 4.7 -4 3 C-3.34 2.67 -2.68 2.34 -2 2 C-1.34 2.33 -0.68 2.66 0 3 C0 2.01 0 1.02 0 0 Z " fill="#4761AF" transform="translate(193,79)"/>
<path d="M0 0 C-4.37009741 2.18504871 -6.98477023 3.31345186 -12 3 C-12.66 2.34 -13.32 1.68 -14 1 C-12.04310963 0.63794536 -10.08442332 0.28558579 -8.125 -0.0625 C-7.03445312 -0.25972656 -5.94390625 -0.45695313 -4.8203125 -0.66015625 C-2 -1 -2 -1 0 0 Z " fill="#2577C6" transform="translate(154,243)"/>
<path d="M0 0 C0.66 0 1.32 0 2 0 C1.814375 0.721875 1.62875 1.44375 1.4375 2.1875 C0.98004693 5.12826973 1.26483643 7.14103058 2 10 C-0.97 9.505 -0.97 9.505 -4 9 C-3.67 8.34 -3.34 7.68 -3 7 C-2.34 7 -1.68 7 -1 7 C-0.67 4.69 -0.34 2.38 0 0 Z " fill="#3E65C0" transform="translate(147,160)"/>
<path d="M0 0 C6.55925943 0.38979206 11.94526627 1.42113193 18 4 C15.45876161 5.27061919 14.53905731 4.83980889 11.8125 4.1875 C11.01585937 3.99800781 10.21921875 3.80851562 9.3984375 3.61328125 C6.24380627 2.80664102 3.12063316 1.9295503 0 1 C0 0.67 0 0.34 0 0 Z " fill="#C29675" transform="translate(194,99)"/>
<path d="M0 0 C2 3 2 3 1.7578125 5.48046875 C1.54898437 6.37378906 1.34015625 7.26710938 1.125 8.1875 C0.92132813 9.08855469 0.71765625 9.98960938 0.5078125 10.91796875 C0.25644531 11.94857422 0.25644531 11.94857422 0 13 C-1.44977894 10.65887549 -2.04314411 9.4203071 -1.7578125 6.640625 C-1.54898437 5.85171875 -1.34015625 5.0628125 -1.125 4.25 C-0.92132813 3.45078125 -0.71765625 2.6515625 -0.5078125 1.828125 C-0.34023437 1.22484375 -0.17265625 0.6215625 0 0 Z " fill="#685BBB" transform="translate(15,55)"/>
<path d="M0 0 C1.051875 0.12375 2.10375 0.2475 3.1875 0.375 C3.1875 0.705 3.1875 1.035 3.1875 1.375 C1.5375 1.375 -0.1125 1.375 -1.8125 1.375 C-2.1425 2.365 -2.4725 3.355 -2.8125 4.375 C-5.875 5.5625 -5.875 5.5625 -8.8125 6.375 C-4.75096154 0.46730769 -4.75096154 0.46730769 0 0 Z " fill="#BD9277" transform="translate(218.8125,62.625)"/>
<path d="M0 0 C3.53372712 1.96318174 6.24479785 4.04070881 9 7 C7.35 7 5.7 7 4 7 C3.34 5.35 2.68 3.7 2 2 C1.34 2 0.68 2 0 2 C0 1.34 0 0.68 0 0 Z " fill="#DF9961" transform="translate(191,59)"/>
<path d="M0 0 C-1.65 1.65 -3.3 3.3 -5 5 C-5.33 3.35 -5.66 1.7 -6 0 C-3.50907189 -1.24546405 -2.58919267 -0.7767578 0 0 Z " fill="#3961BC" transform="translate(215,63)"/>
<path d="M0 0 C3.98175544 2.10148204 6.35039045 4.36905358 9 8 C8.01 8.495 8.01 8.495 7 9 C6.67 8.34 6.34 7.68 6 7 C5.01 6.67 4.02 6.34 3 6 C2.67 5.01 2.34 4.02 2 3 C1.34 2.67 0.68 2.34 0 2 C0 1.34 0 0.68 0 0 Z " fill="#DA9969" transform="translate(110,61)"/>
<path d="M0 0 C0.99 0.66 1.98 1.32 3 2 C3 2.99 3 3.98 3 5 C-0.21451269 6.60725635 -3.43612536 6.05748185 -7 6 C-7 5.67 -7 5.34 -7 5 C-3.535 4.505 -3.535 4.505 0 4 C0 2.68 0 1.36 0 0 Z " fill="#39B0D3" transform="translate(151,237)"/>
<path d="M0 0 C4.23429756 1.31061591 8.07407404 2.94356259 12 5 C9 6 9 6 6.5625 5.3125 C3.79931191 3.89720854 2.06632013 2.29591125 0 0 Z " fill="#2079BB" transform="translate(96,235)"/>
<path d="M0 0 C0.268125 0.639375 0.53625 1.27875 0.8125 1.9375 C1.88667752 4.33131686 1.88667752 4.33131686 5 5 C4.01 5.495 4.01 5.495 3 6 C0.64018187 5.06421005 -1.69631264 4.06652192 -4 3 C-2.68 2.01 -1.36 1.02 0 0 Z " fill="#465DA8" transform="translate(176,47)"/>
<path d="M0 0 C0.66 0.33 1.32 0.66 2 1 C-0.75 3.0625 -0.75 3.0625 -4 5 C-6.203125 4.62109375 -6.203125 4.62109375 -8 4 C-6.71349294 3.30289269 -5.42059335 2.61757124 -4.125 1.9375 C-3.40570313 1.55464844 -2.68640625 1.17179687 -1.9453125 0.77734375 C-1.30335937 0.52082031 -0.66140625 0.26429687 0 0 Z " fill="#D0936E" transform="translate(72,123)"/>
<path d="M0 0 C2 3 2 3 2 6 C2.66 6 3.32 6 4 6 C4.33 6.99 4.66 7.98 5 9 C2.525 8.01 2.525 8.01 0 7 C0 4.69 0 2.38 0 0 Z " fill="#C99577" transform="translate(189,90)"/>
<path d="M0 0 C0.66 1.65 1.32 3.3 2 5 C-0.64 4.34 -3.28 3.68 -6 3 C-6 2.34 -6 1.68 -6 1 C-3.92446352 0.4465236 -2.15634036 0 0 0 Z " fill="#4563AA" transform="translate(222,60)"/>
<path d="M0 0 C0.33 0.66 0.66 1.32 1 2 C-4.94 1.01 -4.94 1.01 -11 0 C-11 -0.33 -11 -0.66 -11 -1 C-6.72306069 -2.25792333 -4.07539885 -1.75983132 0 0 Z " fill="#5D5C98" transform="translate(118,121)"/>
</svg>
